<?xml version="1.0" encoding="UTF-8"?>
<svg id="Layer_1" data-name="Layer 1" xmlns="http://www.w3.org/2000/svg" viewBox="0 0 839.62 136.35">
  <defs>
    <style>
      .cls-1 {
        fill: #fff;
      }

      .cls-2 {
        fill: #a42328;
      }
    </style>
  </defs>
  <g>
    <polygon class="cls-1" points="381.57 103.7 400.99 103.7 400.99 111.3 372.15 111.3 372.15 53.87 381.57 53.87 381.57 103.7"/>
    <path class="cls-1" d="m443.46,99.57h-24.05l-4.13,11.73h-9.83l20.58-57.51h10.91l20.58,57.51h-9.92l-4.13-11.73Zm-2.64-7.68l-9.34-26.69-9.42,26.69h18.76Z"/>
    <polygon class="cls-1" points="515.93 53.87 494.37 111.3 483.46 111.3 461.81 53.87 471.89 53.87 488.91 101.64 506.02 53.87 515.93 53.87"/>
    <rect class="cls-1" x="523.78" y="53.87" width="9.42" height="57.43"/>
    <path class="cls-1" d="m554.11,109.86c-3.09-1.35-5.51-3.27-7.27-5.74-1.76-2.48-2.64-5.37-2.64-8.68h10.08c.22,2.48,1.2,4.52,2.93,6.12,1.74,1.6,4.17,2.4,7.31,2.4s5.78-.79,7.6-2.36c1.82-1.57,2.73-3.59,2.73-6.07,0-1.93-.57-3.5-1.69-4.71-1.13-1.21-2.53-2.15-4.21-2.81-1.68-.66-4.01-1.38-6.98-2.15-3.75-.99-6.79-2-9.13-3.02-2.34-1.02-4.34-2.6-5.99-4.75-1.65-2.15-2.48-5.01-2.48-8.59,0-3.31.83-6.2,2.48-8.68,1.65-2.48,3.97-4.38,6.94-5.7,2.97-1.32,6.42-1.98,10.33-1.98,5.56,0,10.12,1.39,13.68,4.17,3.55,2.78,5.52,6.6,5.91,11.44h-10.41c-.17-2.09-1.16-3.88-2.97-5.37-1.82-1.49-4.21-2.23-7.19-2.23-2.7,0-4.9.69-6.61,2.07-1.71,1.38-2.56,3.36-2.56,5.95,0,1.76.54,3.21,1.61,4.34,1.07,1.13,2.44,2.02,4.09,2.69,1.65.66,3.91,1.38,6.78,2.15,3.8,1.05,6.9,2.09,9.3,3.14,2.4,1.05,4.43,2.66,6.12,4.83,1.68,2.18,2.52,5.08,2.52,8.72,0,2.92-.78,5.67-2.35,8.26-1.57,2.59-3.86,4.67-6.86,6.24-3,1.57-6.54,2.35-10.62,2.35-3.86,0-7.33-.67-10.41-2.02"/>
    <polygon class="cls-1" points="641.38 53.87 641.38 111.3 631.96 111.3 631.96 86.18 604.93 86.18 604.93 111.3 595.51 111.3 595.51 53.87 604.93 53.87 604.93 78.5 631.96 78.5 631.96 53.87 641.38 53.87"/>
    <path class="cls-1" d="m705.09,111.3l-13.22-22.97h-7.19v22.97h-9.42v-57.43h19.83c4.41,0,8.14.77,11.2,2.31,3.06,1.54,5.34,3.61,6.86,6.2,1.51,2.59,2.27,5.48,2.27,8.68,0,3.75-1.09,7.15-3.27,10.21-2.18,3.06-5.52,5.14-10.04,6.24l14.21,23.8h-11.24Zm-20.41-30.49h10.41c3.53,0,6.18-.88,7.98-2.65,1.79-1.76,2.69-4.13,2.69-7.11s-.88-5.3-2.64-6.98c-1.77-1.68-4.44-2.52-8.02-2.52h-10.41v19.25Z"/>
    <rect class="cls-1" x="727.48" y="53.87" width="9.42" height="57.43"/>
    <path class="cls-1" d="m784.13,57.38c4.6,2.34,8.15,5.7,10.66,10.08,2.51,4.38,3.76,9.49,3.76,15.33s-1.25,10.91-3.76,15.21c-2.51,4.3-6.06,7.59-10.66,9.88-4.6,2.29-9.96,3.43-16.07,3.43h-18.76v-57.43h18.76c6.12,0,11.47,1.17,16.07,3.51m-.62,40.78c3.58-3.64,5.37-8.76,5.37-15.37s-1.79-11.87-5.37-15.62c-3.58-3.75-8.73-5.62-15.45-5.62h-9.34v42.06h9.34c6.72,0,11.87-1.82,15.45-5.45"/>
    <polygon class="cls-1" points="817.31 61.48 817.31 78.33 837.14 78.33 837.14 86.02 817.31 86.02 817.31 103.62 839.62 103.62 839.62 111.3 807.89 111.3 807.89 53.79 839.62 53.79 839.62 61.48 817.31 61.48"/>
  </g>
  <g>
    <path class="cls-2" d="m343.15,49.22c-13.07-8.38-27.15-14.57-41.9-19.32-7.09-2.28-14.26-4.27-21.6-5.57-2.81-.44-5.62-.89-8.44-1.33.1.27.13.55.14.84,0,.01.01.02.01.03,0,.02.01.04.02.06.12.38.12.75.04,1.11.2.88.37,1.76.5,2.68.15,1.07.13,2.61.61,3.6.27.55.32,1.08.22,1.56,1.37.08,2.45.16,3.12.22.25.02,3.51.3,7.14.78,16.63,2.22,35.18,7.67,35.18,7.67,7.69,2.26,17.39,5.47,28.42,10.07-1.51-1.05-2.47-1.76-3.47-2.4"/>
    <path class="cls-1" d="m312.95,133.5c-5.3-.4-10.21-1.87-14.74-4.72-5.01-3.14-9.27-7.12-12.99-11.63-11.83-14.32-23.52-28.77-35.29-43.15-.9-1.1-.35-1.59.47-2.29,5.72-4.86,11.13-9.99,15.36-16.3,5.04-7.53,7.8-15.7,7.05-24.76-.59-7.05-2.76-13.15-6.8-17.93-3.76-4.46-8.15-6.53-10.75-7.76-6.34-2.98-11.99-3.35-14.73-3.51-46.36-2.8-72.94-.71-74.07-.74-.05,0-.41-.02-.89.07-.29.05-.61.11-.95.29-.29.15-.85.45-.87.89-.02.51.69.87.85.96.33.17.63.21.97.25.48.06.85.03.91.03,1.97-.14,3.96.04,5.94-.03,5.29-.18,7.9-.08,10.61.22,4.55.5,7.72,2.33,8.37,7.64.26,2.17.47,4.36.49,6.54.07,7.35.14,14.69.19,22.04l20.68-4.55c0-7.47,0-14.94,0-22.41,0-3.19.11-3.63,3.21-4.03,7.26-.93,14.46-.89,21.14,2.84,7.48,4.17,11.88,10.65,13.8,18.82,2.07,8.81,1.9,17.64-1.04,26.24-.94,2.77-2.35,5.53-4.15,7.81-2.58,3.27-5.91,5.84-10.03,7.12-.21.07-.44.06-.67.05,0,0-6.58.49-15.15-.25,0,0-.88-.08-2.4-.35-3.08-.55-3.65-1.06-3.88-1.32-.27-.29-.8-.74-.8-2.49,0-1.79,0-3.58-.01-5.37l-20.57,4.52c0,9.16-.16,18.33-.23,27.49,0,.98-.01,1.69-.09,2.19v11.15c2.09-.43,4.17-.94,6.26-1.55,5.07-1.48,9.95-3.41,14.67-5.71v-6.29h0c-.02-4.06-.05-8.11.05-12.17.01-.45.82-1.2,1.33-1.25,2-.23,4.02-.33,6.03-.31,3.37.03,6.74.22,10.11.27,1.64.02,2.89.58,3.86,1.95,5.92,8.32,11.74,16.73,17.88,24.89,4.92,6.54,10.06,12.95,15.49,19.07,4.56,5.14,10.3,8.75,17.34,9.48,9.35.97,18.74.81,28.11.69.94-.01,2.62.11,2.49-1.49-.04-.46-1.63-1.08-2.55-1.15"/>
    <path class="cls-1" d="m115.3,64.28c-1.4.55-2.18.86-2.3.91-.7.28-4.26,1.68-8.24,3.15-2.86,1.06-6.6,2.4-11.11,3.91.69-31.33.67-54.45.06-60.18-.19-1.8-.69-3.8-2.16-5.44-1.62-1.81-4.1-2.84-7.39-3.02-1.48-.08-2.97,0-4.44-.18-.85-.1-1.82-.39-1.75-1.72.06-1.16.86-1.37,1.7-1.46,1.99-.22,2.99-.25,3.09-.24.31.03,7.46.04,21.76.04,15.6,0,23.4,0,23.58-.02.73-.09,1.43.11,2.87.26.82.08,1.49.5,1.54,1.41.06,1.08-.75,1.48-1.59,1.65-.65.13-1.32.15-1.98.18-1.63.09-3.28,0-4.88.27-.17.03-3.47.48-5.51,2.51-2,2-2.18,5.29-2.18,6.92-.04,22.27.29,50.52.29,50.52-.36.14-.98.39-1.36.54"/>
    <path class="cls-1" d="m94.04,113.14c4.49-1.18,8.95-2.43,13.46-3.51,10.13-9.55,9.28-1.78,9.28-.76.01,2.65.39,5.26.7,7.87.63,5.23,3.83,8.11,8.81,8.86,8.97,1.35,18,1.58,27.02.31,7.39-1.04,11.18-5.49,13.04-13.84.31-1.41.04-3.54,2.07-3.44,2.28.11,1.51,2.3,1.42,3.62-.43,6.46-1.08,12.89-2.47,19.23-.6,2.72-2.03,4.41-4.94,4.77-1.96.24-4.03-.03-5.99-.04-19.46-.1-38.92-.17-57.15,0-5.27.05-10.86,0-16.24,0-.68,0-1.38-.17-2.01-.35-.85-.24-1.84-.57-1.71-1.76.12-1.09,1.06-1.13,1.89-1.2,1.73-.16,3.46-.27,5.18-.45,3.66-.39,5.47-1.88,6.29-5.41,1.06-4.56,1.3-9.22,1.34-13.89"/>
    <path class="cls-2" d="m232.18,59.97c-5.47-.35-9.74-.14-12.51,0-2.53.13-4.68.32-6.34.49-4.89.72-11.3,1.88-18.69,3.82-7.22,1.89-13.72,4.09-20.41,6.71-16.78,6.57-22.42,11.3-41.22,20.09-9.4,4.4-18.66,9.13-28.48,12.56-22.48,7.85-36.81,8.57-48.31,7.07-1.72-.22-3.11-.46-4.01-.63,5.83,1.71,13.14,3.32,21.43,3.94.99.08,11.56.31,20.36-.87.03,0,.07-.01.09-.02,4.4-.86,7.64-1.79,10.28-2.56,3.63-1.06,7.72-2.25,12.36-3.64,2.33-.69,5.66-1.74,9.58-3.19,7.7-2.84,13.29-5.6,17.49-7.68,17.32-8.62,15.15-7.87,23.76-12.15,14.66-7.28,28.84-12.77,28.84-12.77,2.48-.96,4.02-1.55,6.28-2.34,8.66-3.02,18.37-5.1,18.37-5.1,2.07-.44,4.85-.99,8.17-1.53,1.66-.32,3.11-.52,4.25-.65,0,0,2.11-.25,5.29-.41.51-.03,1.01-.05,1.69-.05.8,0,1.11.02,1.12,0,0-.08-4.34-.77-9.37-1.09"/>
    <path class="cls-1" d="m230.7,133.7c-.44-.2-.98-.19-1.48-.23-2.63-.24-5.26-.4-7.88-.7-4-.47-6.23-2.28-6.88-6.23-.58-3.5-.85-7.05-1.1-10.59l-.07-.6h.03s-.51-21.52-.51-21.52l-20.84.27-.85,28.69c-.32,1.93-.67,3.88-1.23,5.76-.7,2.38-2.26,3.99-4.85,4.32-1.89.23-3.79.39-5.68.6-.61.07-1.27.07-1.8.32-.38.18-.75.7-.79,1.11-.03.28.47.81.82.89.97.24,1.98.42,2.98.42,9.76.02,19.52.02,29.29-.01,3.14-.01,6.33.02,9.46.02,2.92,0,5.78-.03,8.69-.02.94,0,1.9-.18,2.8-.45.38-.12.83-.71.83-1.09,0-.33-.54-.77-.93-.95"/>
    <path class="cls-2" d="m247.44,21.47c-9.77.35-19.45,1.63-29.05,3.63-4.99,1.04-9.96,2.2-14.94,3.31-7.08,2.41-14.16,4.82-21.24,7.23-.19.12-.37.27-.58.35-14.76,5.76-29.18,12.35-43.7,18.69-7.14,3.12-14.2,6.44-21.52,9.15-7.29,2.92-14.63,5.7-22.08,8.18-6.4,2.13-23.14,7.38-43.58,8.35-6.91.39-14.78.43-23.41-.25-10.4-.82-19.59-2.49-27.35-4.38,0,0,.01,0,.02,0,0,0,.02,0,.02,0,16.2,6.57,31.05,9.35,31.05,9.35,11.44,2.14,20.35,2.37,26.14,2.49,30.32.63,53.03-6.39,58.18-8.04,3.93-1.26,11.46-4.19,26.28-10.58,12.06-5.2,24.02-10.65,36.16-15.66,36.92-15.24,57.26-18.29,61.7-18.93,4.21-.6,8.4-.99,11.98-1.24-.23-1.43-.52-2.68-.81-3.74-.17-.64-.51-1.82-1.05-3.27-.28-.74-.59-1.57-1.11-2.63-.41-.82-.8-1.5-1.11-2.01"/>
  </g>
</svg>