<?xml version="1.0" encoding="UTF-8"?>
<svg id="Layer_1" data-name="Layer 1" xmlns="http://www.w3.org/2000/svg" viewBox="0 0 262.68 137.47">
  <defs>
    <style>
      .cls-1 {
        fill: #ae2227;
      }

      .cls-2 {
        fill: #262221;
      }
    </style>
  </defs>
  <g>
    <path class="cls-2" d="M7.13,132.4h10.79v4.22H1.9v-31.91H7.13v27.69Z"/>
    <path class="cls-2" d="M41.53,130.11h-13.36l-2.3,6.52h-5.46l11.43-31.96h6.06l11.43,31.96h-5.51l-2.3-6.52Zm-1.47-4.27l-5.19-14.83-5.23,14.83h10.42Z"/>
    <path class="cls-2" d="M81.8,104.71l-11.99,31.91h-6.06l-12.03-31.91h5.6l9.46,26.54,9.51-26.54h5.51Z"/>
    <path class="cls-2" d="M91.4,104.71v31.91h-5.23v-31.91h5.23Z"/>
    <path class="cls-2" d="M103.02,135.82c-1.72-.75-3.06-1.81-4.04-3.19-.98-1.38-1.47-2.98-1.47-4.82h5.6c.12,1.38,.67,2.51,1.63,3.4,.96,.89,2.32,1.33,4.06,1.33s3.21-.44,4.22-1.31c1.01-.87,1.52-2,1.52-3.37,0-1.07-.31-1.94-.94-2.62-.63-.67-1.41-1.19-2.34-1.56-.93-.37-2.23-.76-3.88-1.19-2.08-.55-3.77-1.11-5.07-1.68-1.3-.57-2.41-1.45-3.33-2.64s-1.38-2.78-1.38-4.78c0-1.84,.46-3.44,1.38-4.82,.92-1.38,2.2-2.43,3.86-3.17s3.57-1.1,5.74-1.1c3.09,0,5.63,.77,7.6,2.32,1.97,1.55,3.07,3.67,3.28,6.36h-5.79c-.09-1.16-.64-2.16-1.65-2.98s-2.34-1.24-4-1.24c-1.5,0-2.73,.38-3.67,1.15-.95,.77-1.42,1.87-1.42,3.31,0,.98,.3,1.78,.9,2.41,.6,.63,1.35,1.13,2.27,1.49,.92,.37,2.17,.77,3.77,1.19,2.11,.58,3.83,1.16,5.17,1.75,1.33,.58,2.46,1.48,3.4,2.69,.93,1.21,1.4,2.82,1.4,4.84,0,1.62-.44,3.15-1.31,4.59-.87,1.44-2.14,2.59-3.81,3.47-1.67,.87-3.64,1.31-5.9,1.31-2.14,0-4.07-.37-5.79-1.12Z"/>
    <path class="cls-2" d="M151.51,104.71v31.91h-5.23v-13.96h-15.02v13.96h-5.23v-31.91h5.23v13.68h15.02v-13.68h5.23Z"/>
    <path class="cls-2" d="M186.91,136.63l-7.35-12.77h-4v12.77h-5.23v-31.91h11.02c2.45,0,4.52,.43,6.22,1.29,1.7,.86,2.97,2.01,3.81,3.44,.84,1.44,1.26,3.05,1.26,4.82,0,2.08-.61,3.97-1.81,5.67-1.21,1.7-3.07,2.85-5.58,3.47l7.9,13.23h-6.25Zm-11.34-16.94h5.79c1.96,0,3.44-.49,4.43-1.47,.99-.98,1.49-2.3,1.49-3.95s-.49-2.95-1.47-3.88c-.98-.93-2.46-1.4-4.45-1.4h-5.79v10.7Z"/>
    <path class="cls-2" d="M204.59,104.71v31.91h-5.23v-31.91h5.23Z"/>
    <path class="cls-2" d="M230.84,106.66c2.56,1.3,4.53,3.17,5.92,5.6,1.39,2.43,2.09,5.27,2.09,8.52s-.7,6.06-2.09,8.45c-1.39,2.39-3.37,4.22-5.92,5.49-2.56,1.27-5.53,1.91-8.93,1.91h-10.42v-31.91h10.42c3.4,0,6.37,.65,8.93,1.95Zm-.34,22.66c1.99-2.02,2.98-4.87,2.98-8.54s-1-6.6-2.98-8.68c-1.99-2.08-4.85-3.12-8.59-3.12h-5.19v23.37h5.19c3.73,0,6.6-1.01,8.59-3.03Z"/>
    <path class="cls-2" d="M249.27,108.94v9.37h11.02v4.27h-11.02v9.78h12.4v4.27h-17.63v-31.96h17.63v4.27h-12.4Z"/>
  </g>
  <g>
    <path class="cls-1" d="M243.96,32.93c-8.63-5.53-17.93-9.62-27.68-12.76-4.69-1.51-9.42-2.82-14.27-3.68-1.86-.29-3.71-.59-5.57-.88,.06,.18,.09,.37,.09,.56,0,0,0,.01,0,.02,0,.01,0,.03,.01,.04,.08,.25,.08,.5,.03,.73,.13,.58,.25,1.16,.33,1.77,.1,.7,.08,1.73,.41,2.38,.18,.36,.21,.71,.15,1.03,.91,.05,1.62,.11,2.06,.14,.16,.01,2.32,.2,4.71,.52,10.98,1.47,23.24,5.06,23.24,5.06,5.08,1.49,11.49,3.62,18.77,6.65-1-.69-1.63-1.16-2.29-1.59Z"/>
    <path class="cls-2" d="M224.02,88.6c-3.5-.26-6.74-1.24-9.73-3.12-3.31-2.08-6.12-4.7-8.58-7.68-7.82-9.46-15.53-19-23.31-28.5-.59-.73-.23-1.05,.31-1.51,3.78-3.21,7.35-6.6,10.14-10.77,3.33-4.97,5.15-10.37,4.65-16.35-.39-4.66-1.82-8.68-4.49-11.84-2.49-2.94-5.39-4.31-7.1-5.12-4.18-1.97-7.92-2.21-9.73-2.32-30.62-1.85-48.17-.47-48.92-.49-.03,0-.27-.01-.59,.04-.19,.03-.4,.07-.62,.19-.19,.1-.56,.3-.57,.59-.01,.34,.45,.58,.56,.63,.22,.11,.42,.14,.64,.17,.32,.04,.56,.02,.6,.02,1.3-.09,2.61,.03,3.92-.02,3.49-.12,5.22-.05,7.01,.14,3,.33,5.1,1.54,5.53,5.04,.17,1.43,.31,2.88,.32,4.32,.05,4.85,.09,9.7,.13,14.55l13.66-3c0-4.93,0-9.87,0-14.8,0-2.11,.07-2.4,2.12-2.66,4.8-.62,9.55-.59,13.96,1.88,4.94,2.76,7.84,7.03,9.11,12.43,1.37,5.82,1.25,11.65-.69,17.33-.62,1.83-1.55,3.65-2.74,5.16-1.71,2.16-3.9,3.86-6.62,4.71-.14,.04-.29,.04-.44,.04,0,0-4.34,.33-10-.17,0,0-.58-.05-1.59-.23-2.03-.37-2.41-.7-2.57-.87-.18-.19-.53-.49-.53-1.65,0-1.18,0-2.37,0-3.55l-13.59,2.99c0,6.05-.11,12.11-.15,18.16,0,.65,0,1.11-.06,1.45v7.36c1.38-.28,2.76-.62,4.13-1.02,3.35-.98,6.57-2.25,9.69-3.77v-4.16h0c-.01-2.68-.03-5.36,.04-8.04,0-.3,.55-.79,.88-.83,1.32-.15,2.65-.22,3.98-.2,2.23,.02,4.45,.15,6.68,.18,1.09,.02,1.91,.38,2.55,1.29,3.91,5.5,7.75,11.05,11.81,16.44,3.25,4.32,6.64,8.55,10.23,12.59,3.01,3.4,6.8,5.78,11.45,6.26,6.17,.64,12.37,.54,18.56,.46,.62,0,1.73,.07,1.65-.99-.02-.3-1.08-.71-1.68-.76Z"/>
    <g>
      <path class="cls-2" d="M93.47,42.89c-.92,.36-1.44,.57-1.52,.6-.46,.18-2.82,1.11-5.45,2.08-1.89,.7-4.36,1.59-7.34,2.58,.46-20.7,.44-35.96,.04-39.75-.13-1.19-.46-2.51-1.43-3.59-1.07-1.19-2.71-1.88-4.88-2-.98-.05-1.96,0-2.93-.12-.56-.07-1.2-.26-1.15-1.14,.04-.77,.57-.91,1.12-.97,1.31-.15,1.97-.17,2.04-.16,.2,.02,4.93,.02,14.37,.03,10.3,0,15.45,0,15.57,0,.48-.06,.94,.07,1.89,.17,.54,.06,.99,.33,1.02,.93,.04,.72-.5,.97-1.05,1.09-.43,.09-.87,.1-1.31,.12-1.07,.06-2.17,0-3.22,.18-.11,.02-2.29,.31-3.64,1.66-1.32,1.32-1.44,3.49-1.44,4.57-.03,14.71,.19,33.37,.19,33.37-.24,.1-.65,.26-.9,.35Z"/>
      <path class="cls-2" d="M79.43,75.16c2.96-.78,5.91-1.6,8.89-2.32,6.69-6.31,6.13-1.17,6.13-.5,0,1.75,.26,3.47,.46,5.2,.42,3.45,2.53,5.36,5.82,5.85,5.93,.89,11.89,1.04,17.85,.21,4.88-.68,7.39-3.63,8.61-9.14,.21-.93,.02-2.33,1.37-2.27,1.5,.07,1,1.52,.94,2.39-.28,4.26-.71,8.51-1.63,12.7-.39,1.8-1.34,2.91-3.26,3.15-1.29,.16-2.66-.02-3.96-.03-12.85-.06-25.7-.11-37.75,0-3.48,.03-7.17,0-10.73,0-.45,0-.91-.11-1.33-.23-.56-.16-1.21-.38-1.13-1.16,.08-.72,.7-.74,1.25-.79,1.14-.11,2.28-.18,3.42-.3,2.41-.26,3.61-1.24,4.15-3.58,.7-3.01,.86-6.09,.89-9.18"/>
      <path class="cls-1" d="M170.67,40.04c-3.61-.23-6.43-.09-8.26,0-1.67,.09-3.09,.21-4.19,.32-3.23,.48-7.46,1.24-12.35,2.52-4.77,1.25-9.06,2.7-13.48,4.43-11.08,4.34-14.81,7.46-27.23,13.27-6.21,2.9-12.33,6.03-18.81,8.29-14.84,5.18-24.31,5.66-31.91,4.67-1.13-.15-2.06-.31-2.65-.41,3.85,1.13,8.68,2.19,14.15,2.6,.65,.05,7.63,.21,13.45-.58,.02,0,.05,0,.06-.01,2.91-.57,5.04-1.19,6.79-1.69,2.4-.7,5.1-1.49,8.16-2.4,1.54-.46,3.74-1.15,6.33-2.11,5.08-1.88,8.78-3.7,11.55-5.07,11.44-5.69,10.01-5.2,15.7-8.02,9.68-4.81,19.05-8.44,19.05-8.44,1.64-.63,2.65-1.03,4.15-1.55,5.72-1.99,12.13-3.37,12.13-3.37,1.37-.29,3.21-.66,5.4-1.01,1.1-.21,2.05-.34,2.81-.43,0,0,1.39-.17,3.49-.27,.34-.02,.67-.03,1.12-.04,.53,0,.74,.02,.74,0,0-.05-2.87-.51-6.19-.72Z"/>
    </g>
    <path class="cls-2" d="M169.69,88.73c-.29-.13-.65-.12-.98-.15-1.73-.16-3.48-.26-5.2-.46-2.64-.31-4.11-1.51-4.54-4.12-.38-2.31-.56-4.65-.73-7h0s-.05-.39-.05-.39h.02s-.33-14.21-.33-14.21l-13.77,.18-.56,18.95c-.21,1.28-.44,2.56-.81,3.8-.46,1.57-1.49,2.64-3.2,2.85-1.25,.15-2.5,.26-3.75,.4-.4,.04-.84,.04-1.19,.21-.25,.12-.5,.47-.52,.73-.02,.19,.31,.53,.54,.59,.64,.16,1.31,.28,1.97,.28,6.45,.01,12.9,.01,19.34,0,2.07,0,4.18,.02,6.25,.02,1.93,0,3.81-.02,5.74-.01,.62,0,1.26-.12,1.85-.3,.25-.08,.55-.47,.55-.72,0-.22-.36-.51-.62-.63Z"/>
    <path class="cls-1" d="M180.75,14.61c-6.45,.23-12.85,1.07-19.19,2.4-3.3,.69-6.58,1.46-9.86,2.19-4.68,1.59-9.35,3.18-14.03,4.77-.13,.08-.24,.18-.38,.23-9.75,3.81-19.27,8.16-28.86,12.34-4.72,2.06-9.38,4.25-14.21,6.04-4.81,1.93-9.66,3.76-14.58,5.4-4.22,1.41-15.28,4.88-28.78,5.51h0c-4.56,.26-9.76,.28-15.46-.17-6.87-.54-12.94-1.65-18.07-2.9,0,0,0,0,.01,0,0,0,.01,0,.01,0,10.7,4.34,20.51,6.17,20.51,6.17,7.56,1.42,13.44,1.56,17.26,1.64,20.03,.42,35.03-4.22,38.42-5.31,2.6-.83,7.57-2.77,17.36-6.99,7.97-3.44,15.86-7.04,23.88-10.35,24.39-10.07,37.82-12.08,40.75-12.5,2.78-.4,5.55-.65,7.91-.82-.15-.94-.34-1.77-.53-2.47-.11-.42-.34-1.2-.7-2.16-.18-.49-.39-1.04-.73-1.74-.27-.54-.53-.99-.73-1.33Z"/>
  </g>
</svg>