<?xml version="1.0" standalone="no"?>
<!DOCTYPE svg PUBLIC "-//W3C//DTD SVG 20010904//EN"
 "http://www.w3.org/TR/2001/REC-SVG-20010904/DTD/svg10.dtd">
<svg version="1.0" xmlns="http://www.w3.org/2000/svg"
 width="512.000000pt" height="512.000000pt" viewBox="0 0 512.000000 512.000000"
 preserveAspectRatio="xMidYMid meet">
<metadata>
Created by potrace 1.16, written by Peter Selinger 2001-2019
</metadata>
<g transform="translate(0.000000,512.000000) scale(0.100000,-0.100000)"
fill="#000000" stroke="none">
<path d="M4062 4685 c-108 -24 -208 -80 -293 -165 -90 -89 -132 -160 -159
-266 -37 -144 -20 -280 55 -429 24 -49 102 -189 173 -310 l128 -220 -965 -5
c-865 -4 -970 -7 -1007 -21 -95 -39 -153 -76 -210 -134 -242 -247 -184 -656
116 -827 99 -57 124 -61 430 -69 245 -6 295 -9 355 -27 150 -44 258 -108 363
-214 163 -166 241 -367 229 -597 -6 -130 -24 -200 -82 -316 -99 -201 -263
-341 -490 -416 l-70 -24 -737 -3 c-406 -1 -738 -1 -738 2 0 2 63 114 141 248
169 292 171 296 201 384 30 92 32 261 4 344 -55 161 -159 281 -312 358 -88 44
-167 62 -279 62 -169 0 -292 -56 -417 -188 -71 -75 -125 -174 -148 -267 -21
-88 -15 -232 14 -317 25 -75 404 -748 449 -797 51 -55 127 -65 203 -26 l49 25
761 0 c487 0 782 4 820 11 382 67 672 338 780 729 14 51 18 101 18 230 0 197
-16 269 -94 427 -135 273 -355 445 -670 524 -25 6 -171 14 -325 17 -275 7
-281 8 -337 34 -144 67 -233 221 -213 368 16 113 107 234 213 283 l47 22 999
3 999 2 44 -21 c55 -27 135 -23 179 8 35 25 434 710 465 799 27 75 38 182 28
269 -24 219 -186 422 -397 496 -76 27 -234 34 -320 14z m217 -166 c123 -28
235 -118 292 -235 32 -65 34 -74 34 -179 0 -93 -3 -118 -22 -159 -26 -56 -370
-655 -387 -673 -8 -9 -58 69 -203 320 -106 183 -199 351 -207 374 -50 141 -15
305 88 420 102 113 263 165 405 132z m-3167 -2692 c166 -82 266 -268 238 -441
-13 -80 -40 -133 -243 -484 l-175 -303 -20 33 c-137 226 -370 646 -384 691
-66 214 54 446 272 527 44 16 74 20 146 17 82 -2 100 -7 166 -40z"/>
<path d="M4070 4379 c-134 -60 -202 -215 -159 -359 19 -64 78 -131 144 -165
77 -40 184 -43 256 -7 60 29 116 86 143 142 32 69 29 188 -6 256 -31 58 -83
108 -142 135 -58 26 -176 25 -236 -2z"/>
<path d="M867 1730 c-188 -47 -282 -253 -191 -420 49 -90 129 -140 235 -148
95 -7 159 17 224 82 147 147 99 391 -92 471 -44 19 -131 26 -176 15z m107
-174 c124 -52 87 -226 -49 -226 -51 0 -104 51 -111 105 -6 50 22 100 69 120
41 18 50 18 91 1z"/>
</g>
</svg>
