<?xml version="1.0" standalone="no"?>
<!DOCTYPE svg PUBLIC "-//W3C//DTD SVG 20010904//EN"
 "http://www.w3.org/TR/2001/REC-SVG-20010904/DTD/svg10.dtd">
<svg version="1.0" xmlns="http://www.w3.org/2000/svg"
 width="512.000000pt" height="512.000000pt" viewBox="0 0 512.000000 512.000000"
 preserveAspectRatio="xMidYMid meet">
<metadata>
Created by potrace 1.16, written by Peter Selinger 2001-2019
</metadata>
<g transform="translate(0.000000,512.000000) scale(0.100000,-0.100000)"
fill="#000000" stroke="none">
<path d="M1860 4939 c-157 -28 -317 -110 -429 -221 -109 -107 -175 -222 -219
-383 -23 -84 -22 -306 2 -395 26 -98 89 -220 155 -302 32 -40 304 -317 603
-615 l543 -543 45 0 45 0 543 543 c299 298 571 575 603 615 66 82 129 204 155
302 24 89 25 311 2 395 -44 161 -110 276 -218 383 -201 199 -507 278 -780 202
-97 -28 -231 -98 -297 -156 l-53 -46 -52 46 c-66 58 -201 128 -298 156 -87 24
-265 34 -350 19z m331 -193 c96 -34 167 -78 260 -163 103 -95 116 -96 207 -10
121 114 211 164 345 191 94 20 162 20 252 1 182 -38 352 -170 434 -335 94
-191 94 -378 0 -570 -41 -84 -46 -90 -585 -630 l-544 -545 -543 545 c-600 602
-593 593 -637 766 -89 348 144 703 510 774 76 15 222 3 301 -24z"/>
<path d="M2340 4380 c-18 -18 -20 -33 -20 -160 l0 -140 -140 0 c-192 0 -180
16 -180 -240 0 -256 -12 -240 180 -240 l140 0 0 -140 c0 -192 -16 -180 240
-180 256 0 240 -12 240 180 l0 140 140 0 c192 0 180 -16 180 240 0 256 12 240
-180 240 l-140 0 0 140 c0 192 16 180 -240 180 -187 0 -201 -1 -220 -20z m300
-280 c0 -127 2 -142 20 -160 18 -18 33 -20 160 -20 l140 0 0 -80 0 -80 -140 0
c-127 0 -142 -2 -160 -20 -18 -18 -20 -33 -20 -160 l0 -140 -80 0 -80 0 0 140
c0 127 -2 142 -20 160 -18 18 -33 20 -160 20 l-140 0 0 80 0 80 140 0 c127 0
142 2 160 20 18 18 20 33 20 160 l0 140 80 0 80 0 0 -140z"/>
<path d="M573 4005 c-137 -37 -232 -156 -236 -294 -1 -34 -4 -61 -7 -61 -22 0
-94 -80 -121 -135 -56 -113 -57 -106 150 -880 135 -501 191 -696 214 -739 27
-51 74 -97 343 -338 244 -217 317 -288 334 -323 17 -35 23 -70 27 -160 6 -113
6 -115 -16 -115 -11 0 -30 -9 -41 -20 -19 -19 -20 -33 -20 -380 0 -347 1 -361
20 -380 20 -20 33 -20 620 -20 587 0 600 0 620 20 19 19 20 33 20 380 0 347
-1 361 -20 380 -11 11 -29 20 -40 20 -19 0 -19 11 -22 453 l-3 452 -28 80
c-48 136 -127 247 -236 335 -31 25 -225 144 -431 264 l-375 220 -185 534
c-134 387 -194 547 -217 581 -42 59 -112 106 -188 126 -71 18 -94 18 -162 0z
m161 -183 c16 -9 37 -28 47 -42 17 -23 354 -979 347 -984 -4 -3 -84 -26 -91
-26 -2 0 -8 12 -12 28 -3 15 -58 187 -122 381 l-115 355 -62 61 c-59 60 -94
79 -188 99 -35 8 -37 37 -5 83 46 68 128 87 201 45z m-160 -320 c16 -9 37 -28
48 -42 10 -14 76 -203 146 -420 l128 -395 -20 -45 c-14 -32 -20 -67 -21 -125
0 -71 4 -88 33 -147 18 -37 48 -80 67 -95 19 -16 144 -92 279 -171 262 -151
290 -161 337 -123 31 25 33 92 4 120 -11 10 -123 78 -250 151 -126 72 -242
143 -258 158 -82 78 -43 218 71 253 35 10 48 10 82 -4 22 -8 208 -113 412
-233 411 -240 469 -285 535 -410 64 -120 66 -137 71 -597 l4 -417 -400 0 -401
0 -3 143 c-3 130 -5 147 -30 200 -15 32 -40 73 -55 91 -15 18 -152 143 -303
278 -306 273 -324 291 -340 332 -32 87 -362 1337 -362 1374 0 55 33 105 87
132 45 23 90 20 139 -8z m1746 -2942 l0 -240 -480 0 -480 0 0 240 0 240 480 0
480 0 0 -240z"/>
<path d="M4393 4010 c-82 -17 -157 -70 -206 -146 -13 -21 -107 -278 -208 -570
l-184 -531 -375 -219 c-206 -120 -401 -241 -435 -267 -120 -96 -206 -229 -245
-383 -18 -71 -20 -112 -20 -506 0 -421 0 -428 -20 -428 -11 0 -29 -9 -40 -20
-19 -19 -20 -33 -20 -380 0 -347 1 -361 20 -380 20 -20 33 -20 620 -20 587 0
600 0 620 20 19 19 20 33 20 380 0 347 -1 361 -20 380 -11 11 -30 20 -41 20
-22 0 -22 2 -16 115 8 175 -3 160 356 480 288 256 338 308 369 378 7 16 94
333 193 705 206 770 205 764 150 877 -27 55 -99 135 -121 135 -3 0 -6 27 -7
61 -4 140 -100 258 -240 294 -62 16 -87 17 -150 5z m131 -180 c45 -22 86 -74
86 -108 0 -16 -8 -23 -27 -27 -60 -12 -100 -28 -146 -58 -86 -57 -104 -97
-233 -497 -65 -201 -118 -366 -120 -368 -2 -3 -84 18 -92 24 -2 1 72 219 165
485 119 343 175 492 193 512 23 26 86 56 119 57 8 0 33 -9 55 -20z m160 -320
c51 -25 87 -76 88 -126 1 -35 -301 -1188 -353 -1351 -24 -72 -43 -92 -409
-415 -129 -114 -246 -223 -258 -242 -57 -84 -72 -142 -72 -283 l0 -133 -401 0
-401 0 4 417 c5 460 7 477 71 597 66 126 124 170 536 411 206 120 392 225 413
233 32 13 45 13 80 3 114 -35 153 -175 71 -253 -16 -15 -131 -86 -258 -158
-126 -73 -239 -141 -250 -151 -29 -28 -27 -95 4 -120 47 -38 77 -27 319 112
125 73 246 145 269 161 117 79 164 256 105 391 l-18 41 68 211 c38 115 96 295
129 398 66 206 85 238 154 262 53 19 62 18 109 -5z m-924 -2950 l0 -240 -480
0 -480 0 0 240 0 240 480 0 480 0 0 -240z"/>
</g>
</svg>
