<?xml version="1.0" standalone="no"?>
<!DOCTYPE svg PUBLIC "-//W3C//DTD SVG 20010904//EN"
 "http://www.w3.org/TR/2001/REC-SVG-20010904/DTD/svg10.dtd">
<svg version="1.0" xmlns="http://www.w3.org/2000/svg"
 width="512.000000pt" height="512.000000pt" viewBox="0 0 512.000000 512.000000"
 preserveAspectRatio="xMidYMid meet">
<metadata>
Created by potrace 1.16, written by Peter Selinger 2001-2019
</metadata>
<g transform="translate(0.000000,512.000000) scale(0.100000,-0.100000)"
fill="#000000" stroke="none">
<path d="M3236 4228 c-22 -21 -1290 -2598 -1352 -2750 -100 -242 48 -519 304
-569 205 -39 416 83 476 276 28 88 686 2959 686 2990 0 36 -8 48 -37 64 -32
16 -49 14 -77 -11z m-865 -2724 c73 -37 121 -136 105 -217 -15 -74 -113 -157
-186 -157 -72 0 -152 51 -181 114 -77 169 99 343 262 260z"/>
<path d="M2465 3850 c-11 -18 -38 -591 -28 -601 9 -9 151 -34 157 -28 8 7 296
602 294 604 -8 7 -185 26 -292 31 -95 5 -125 4 -131 -6z"/>
<path d="M2035 3820 c-223 -40 -455 -117 -660 -220 -167 -84 -372 -215 -381
-244 -4 -13 27 -68 107 -187 63 -93 119 -170 126 -173 6 -3 67 23 135 56 236
116 496 185 736 195 73 3 139 11 148 17 14 10 14 36 -1 261 -21 338 -17 315
-68 314 -23 0 -87 -9 -142 -19z"/>
<path d="M3370 3686 c0 -3 -36 -160 -80 -351 -44 -191 -80 -352 -80 -358 0
-14 117 -102 149 -112 18 -5 43 27 206 275 217 331 221 336 204 356 -17 21
-158 96 -279 149 -98 43 -120 50 -120 41z"/>
<path d="M3753 3062 c-127 -153 -235 -288 -242 -299 -10 -19 -3 -31 69 -112
177 -201 276 -360 371 -596 49 -123 59 -140 80 -142 13 -2 204 70 424 160 340
138 400 165 403 184 4 25 -95 224 -172 346 -98 156 -227 318 -361 456 -135
139 -301 281 -327 281 -9 0 -119 -125 -245 -278z"/>
<path d="M681 3084 c-176 -184 -312 -382 -429 -623 -77 -157 -137 -313 -129
-334 6 -16 213 -99 236 -95 8 2 43 54 78 116 150 269 309 464 526 645 59 49
107 93 107 98 0 4 -26 39 -57 77 -173 204 -189 221 -209 222 -15 0 -55 -35
-123 -106z"/>
<path d="M4493 1876 c-233 -67 -428 -127 -434 -133 -8 -8 -8 -29 1 -80 33
-191 29 -482 -10 -672 -11 -54 -20 -104 -20 -110 0 -16 1062 -15 1078 1 18 18
15 353 -3 512 -17 147 -55 340 -90 468 -38 134 -41 138 -72 137 -16 -1 -218
-56 -450 -123z"/>
<path d="M50 1875 c-5 -13 -17 -75 -27 -137 -34 -211 -21 -774 19 -850 11 -22
100 -25 116 -6 5 8 12 111 15 238 7 251 21 348 82 573 31 117 35 141 24 152
-15 14 -162 55 -197 55 -15 0 -26 -9 -32 -25z"/>
</g>
</svg>
