<?xml version="1.0" standalone="no"?>
<!DOCTYPE svg PUBLIC "-//W3C//DTD SVG 20010904//EN"
 "http://www.w3.org/TR/2001/REC-SVG-20010904/DTD/svg10.dtd">
<svg version="1.0" xmlns="http://www.w3.org/2000/svg"
 width="512.000000pt" height="512.000000pt" viewBox="0 0 512.000000 512.000000"
 preserveAspectRatio="xMidYMid meet">
<metadata>
Created by potrace 1.16, written by Peter Selinger 2001-2019
</metadata>
<g transform="translate(0.000000,512.000000) scale(0.100000,-0.100000)"
fill="#000000" stroke="none">
<path d="M4547 5110 c-98 -25 -222 -119 -274 -208 -109 -186 -74 -427 85 -572
249 -229 662 -110 746 215 31 119 13 254 -47 357 -38 65 -128 145 -204 180
-58 28 -79 32 -167 34 -56 2 -118 -1 -139 -6z"/>
<path d="M3209 5014 c-8 -9 -52 -86 -99 -171 l-85 -154 -159 -88 c-245 -134
-245 -140 -8 -270 l169 -93 89 -164 c91 -169 102 -180 155 -172 18 2 41 37
113 169 l91 167 160 87 c88 48 166 94 173 103 19 24 14 56 -10 79 -13 11 -90
56 -171 99 l-148 79 -91 165 c-50 91 -96 168 -102 172 -19 13 -63 8 -77 -8z"/>
<path d="M1735 4921 c-23 -10 -48 -29 -57 -43 -26 -40 -188 -506 -188 -541 0
-45 29 -98 69 -124 59 -40 156 -28 203 24 10 11 57 127 104 259 101 277 107
317 60 379 -49 64 -117 80 -191 46z"/>
<path d="M2412 3953 c-110 -54 -107 -220 6 -274 132 -64 267 71 203 203 -37
78 -131 110 -209 71z"/>
<path d="M3945 3900 c-73 -16 -117 -72 -117 -150 0 -98 67 -156 169 -148 46 4
60 10 90 41 31 30 37 44 41 90 9 114 -74 190 -183 167z"/>
<path d="M1263 3680 c-71 -28 -145 -101 -179 -175 -23 -50 -28 -74 -28 -140 0
-156 -78 -67 1102 -1246 1013 -1013 1049 -1047 1107 -1069 172 -63 360 9 434
165 36 74 40 190 11 270 -22 58 -57 94 -1069 1108 -1171 1172 -1089 1100
-1241 1104 -66 2 -96 -2 -137 -17z"/>
<path d="M4900 3612 c-56 -28 -74 -67 -130 -291 l-52 -210 -42 26 c-22 14 -79
54 -126 88 -114 83 -125 89 -196 89 -79 0 -142 -35 -179 -99 -24 -40 -28 -63
-41 -227 -8 -101 -15 -188 -17 -194 -1 -6 -101 42 -222 107 -209 113 -223 119
-278 119 -69 0 -120 -23 -165 -74 -47 -53 -54 -109 -50 -367 l3 -226 29 -37
c51 -67 120 -82 196 -44 69 36 80 67 80 230 0 76 3 138 7 138 3 0 69 -34 145
-76 161 -88 269 -138 316 -147 50 -10 124 10 166 44 59 49 73 88 80 219 4 63
9 143 12 177 l5 61 61 -40 c125 -83 220 -128 271 -128 82 0 158 45 194 115 25
47 153 562 153 614 0 115 -116 186 -220 133z"/>
<path d="M3175 3558 c-183 -65 -465 -184 -488 -206 -96 -92 -23 -262 113 -262
34 0 490 173 531 201 34 24 59 77 59 126 0 108 -108 179 -215 141z"/>
<path d="M996 2410 c-75 -171 -136 -315 -136 -320 0 -12 1791 -902 1799 -895
5 6 -1509 1525 -1520 1525 -4 0 -68 -140 -143 -310z"/>
<path d="M3960 2093 c-105 -54 -108 -212 -5 -270 71 -40 150 -24 200 41 36 47
40 131 9 173 -51 67 -136 91 -204 56z"/>
<path d="M601 1509 c-73 -165 -131 -305 -129 -311 4 -10 1142 -538 1162 -538
12 0 734 315 744 324 3 3 3 8 0 11 -5 5 -1636 815 -1642 815 -2 0 -63 -135
-135 -301z"/>
<path d="M331 893 c-7 -16 -85 -191 -172 -390 -177 -402 -182 -421 -130 -474
53 -53 55 -52 665 215 306 134 558 247 559 252 2 7 -885 423 -904 424 -3 0
-11 -12 -18 -27z"/>
</g>
</svg>
